<mxfile host="app.diagrams.net" agent="Mozilla/5.0 (Windows NT 10.0; Win64; x64) AppleWebKit/537.36 (KHTML, like Gecko) Chrome/136.0.0.0 Safari/537.36 Edg/136.0.0.0" version="27.0.6">
  <diagram name="LMS Architecture" id="0">
    <mxGraphModel dx="1034" dy="570" grid="1" gridSize="10" guides="1" tooltips="1" connect="1" arrows="1" fold="1" page="1" pageScale="1" pageWidth="827" pageHeight="1169" math="0" shadow="0">
      <root>
        <mxCell id="0" />
        <mxCell id="1" parent="0" />
        <mxCell id="eureka" value="Eureka Server" style="rounded=1;whiteSpace=wrap;html=1;fillColor=#d9e8fb;strokeColor=#6c8ebf;" parent="1" vertex="1">
          <mxGeometry x="300" y="50" width="120" height="60" as="geometry" />
        </mxCell>
        <mxCell id="gateway" value="API Gateway" style="rounded=1;whiteSpace=wrap;html=1;fillColor=#f8d7da;strokeColor=#c82333;" parent="1" vertex="1">
          <mxGeometry x="300" y="150" width="120" height="60" as="geometry" />
        </mxCell>
        <mxCell id="bookService" value="Book Service" style="rounded=1;whiteSpace=wrap;html=1;fillColor=#d4edda;strokeColor=#155724;" parent="1" vertex="1">
          <mxGeometry x="20" y="200" width="120" height="60" as="geometry" />
        </mxCell>
        <mxCell id="memberService" value="Member Service" style="rounded=1;whiteSpace=wrap;html=1;fillColor=#d4edda;strokeColor=#155724;" parent="1" vertex="1">
          <mxGeometry x="300" y="280" width="120" height="60" as="geometry" />
        </mxCell>
        <mxCell id="borrowingService" value="Borrowing Transaction Service" style="rounded=1;whiteSpace=wrap;html=1;fillColor=#d4edda;strokeColor=#155724;" parent="1" vertex="1">
          <mxGeometry x="580" y="200" width="120" height="60" as="geometry" />
        </mxCell>
        <mxCell id="fineService" value="Fine Service" style="rounded=1;whiteSpace=wrap;html=1;fillColor=#d4edda;strokeColor=#155724;" parent="1" vertex="1">
          <mxGeometry x="150" y="280" width="120" height="60" as="geometry" />
        </mxCell>
        <mxCell id="notificationService" value="Notification Service" style="rounded=1;whiteSpace=wrap;html=1;fillColor=#d4edda;strokeColor=#155724;" parent="1" vertex="1">
          <mxGeometry x="450" y="280" width="120" height="60" as="geometry" />
        </mxCell>
        <mxCell id="bookDB" value="Book DB" style="ellipse;whiteSpace=wrap;html=1;fillColor=#fff3cd;strokeColor=#856404;" parent="1" vertex="1">
          <mxGeometry x="40" y="440" width="80" height="40" as="geometry" />
        </mxCell>
        <mxCell id="memberDB" value="Member DB" style="ellipse;whiteSpace=wrap;html=1;fillColor=#fff3cd;strokeColor=#856404;" parent="1" vertex="1">
          <mxGeometry x="320" y="440" width="80" height="40" as="geometry" />
        </mxCell>
        <mxCell id="borrowingDB" value="Borrowing DB" style="ellipse;whiteSpace=wrap;html=1;fillColor=#fff3cd;strokeColor=#856404;" parent="1" vertex="1">
          <mxGeometry x="600" y="440" width="80" height="40" as="geometry" />
        </mxCell>
        <mxCell id="fineDB" value="Fine DB" style="ellipse;whiteSpace=wrap;html=1;fillColor=#fff3cd;strokeColor=#856404;" parent="1" vertex="1">
          <mxGeometry x="170" y="440" width="80" height="40" as="geometry" />
        </mxCell>
        <mxCell id="notificationDB" value="Notification DB" style="ellipse;whiteSpace=wrap;html=1;fillColor=#fff3cd;strokeColor=#856404;" parent="1" vertex="1">
          <mxGeometry x="470" y="440" width="80" height="40" as="geometry" />
        </mxCell>
        <mxCell id="conn1" parent="1" source="eureka" target="gateway" edge="1">
          <mxGeometry relative="1" as="geometry" />
        </mxCell>
        <mxCell id="conn2" parent="1" source="gateway" target="bookService" edge="1">
          <mxGeometry relative="1" as="geometry" />
        </mxCell>
        <mxCell id="conn3" parent="1" source="gateway" target="memberService" edge="1">
          <mxGeometry relative="1" as="geometry" />
        </mxCell>
        <mxCell id="conn4" parent="1" source="gateway" target="borrowingService" edge="1">
          <mxGeometry relative="1" as="geometry" />
        </mxCell>
        <mxCell id="conn5" parent="1" source="gateway" target="fineService" edge="1">
          <mxGeometry relative="1" as="geometry" />
        </mxCell>
        <mxCell id="conn6" parent="1" source="gateway" target="notificationService" edge="1">
          <mxGeometry relative="1" as="geometry" />
        </mxCell>
        <mxCell id="conn7" parent="1" source="bookService" target="bookDB" edge="1">
          <mxGeometry relative="1" as="geometry" />
        </mxCell>
        <mxCell id="conn8" parent="1" source="memberService" target="memberDB" edge="1">
          <mxGeometry relative="1" as="geometry" />
        </mxCell>
        <mxCell id="conn9" parent="1" source="borrowingService" target="borrowingDB" edge="1">
          <mxGeometry relative="1" as="geometry" />
        </mxCell>
        <mxCell id="conn10" parent="1" source="fineService" target="fineDB" edge="1">
          <mxGeometry relative="1" as="geometry" />
        </mxCell>
        <mxCell id="conn11" parent="1" source="notificationService" target="notificationDB" edge="1">
          <mxGeometry relative="1" as="geometry" />
        </mxCell>
        <mxCell id="DGGPNVl7pm5t6BgNklQz-3" value="Fig. Architecture Diagram of LMS" style="text;html=1;align=center;verticalAlign=middle;resizable=0;points=[];autosize=1;strokeColor=none;fillColor=none;" vertex="1" parent="1">
          <mxGeometry x="260" y="520" width="200" height="30" as="geometry" />
        </mxCell>
      </root>
    </mxGraphModel>
  </diagram>
</mxfile>
